<!DOCTYPE svg PUBLIC "-//W3C//DTD SVG 1.1//EN" "http://www.w3.org/Graphics/SVG/1.1/DTD/svg11.dtd">
<!-- Uploaded to: SVG Repo, www.svgrepo.com, Transformed by: SVG Repo Mixer Tools -->
<svg fill="#000000" width="180px" height="180px" viewBox="0 0 24 24" id="call-out" data-name="Flat Line" xmlns="http://www.w3.org/2000/svg" class="icon flat-line">
<g id="SVGRepo_bgCarrier" stroke-width="0"/>
<g id="SVGRepo_tracerCarrier" stroke-linecap="round" stroke-linejoin="round"/>
<g id="SVGRepo_iconCarrier">
<path id="secondary" d="M21,15v3.93a2,2,0,0,1-2.29,2A18,18,0,0,1,3.14,5.29,2,2,0,0,1,5.13,3H9a1,1,0,0,1,1,.89,10.74,10.74,0,0,0,1,3.78,1,1,0,0,1-.42,1.26l-.86.49a1,1,0,0,0-.33,1.46,14.08,14.08,0,0,0,3.69,3.69,1,1,0,0,0,1.46-.33l.49-.86A1,1,0,0,1,16.33,13a10.74,10.74,0,0,0,3.78,1A1,1,0,0,1,21,15Z" style="fill: #2ca9bc; stroke-width: 2;"/>
<polyline id="primary" points="21 8 21 3 16 3" style="fill: none; stroke: #2ca9bc; stroke-linecap: round; stroke-linejoin: round; stroke-width: 2;"/>
<path id="primary-2" data-name="primary" d="M21,3,16,8m4.11,6a10.74,10.74,0,0,1-3.78-1,1,1,0,0,0-1.26.42l-.49.86a1,1,0,0,1-1.46.33,14.08,14.08,0,0,1-3.69-3.69,1,1,0,0,1,.33-1.46l.86-.49A1,1,0,0,0,11,7.67a10.74,10.74,0,0,1-1-3.78A1,1,0,0,0,9,3H5.13a2,2,0,0,0-2,2.29A18,18,0,0,0,18.71,20.86a2,2,0,0,0,2.29-2V15A1,1,0,0,0,20.11,14Z" style="fill: none; stroke: #2ca9bc; stroke-linecap: round; stroke-linejoin: round; stroke-width: 2;"/>
</g>
</svg>